<?xml version="1.0" encoding="UTF-8" standalone="no"?>
<!DOCTYPE svg PUBLIC "-//W3C//DTD SVG 1.1//EN" "http://www.w3.org/Graphics/SVG/1.1/DTD/svg11.dtd">
<svg width="100%" height="100%" viewBox="0 0 167 71" version="1.1" xmlns="http://www.w3.org/2000/svg" xmlns:xlink="http://www.w3.org/1999/xlink" xml:space="preserve" xmlns:serif="http://www.serif.com/" style="fill-rule:evenodd;clip-rule:evenodd;stroke-linejoin:round;stroke-miterlimit:2;">
    <g transform="matrix(1,0,0,1,-122.726,-137.123)">
        <g transform="matrix(0.35923,0,0,1.22841,81.1255,-30.6069)">
            <g transform="matrix(114.4,0,0,33.4545,111,160.228)">
                <path d="M0.042,-0.708C0.056,-0.707 0.074,-0.707 0.097,-0.706C0.12,-0.705 0.142,-0.705 0.164,-0.705C0.195,-0.705 0.225,-0.705 0.254,-0.706C0.283,-0.707 0.303,-0.707 0.315,-0.707C0.385,-0.707 0.438,-0.692 0.473,-0.663C0.508,-0.634 0.526,-0.596 0.526,-0.55C0.526,-0.527 0.521,-0.504 0.512,-0.482C0.502,-0.459 0.486,-0.439 0.464,-0.421C0.441,-0.402 0.411,-0.387 0.374,-0.376L0.374,-0.374C0.427,-0.367 0.468,-0.355 0.498,-0.337C0.527,-0.318 0.548,-0.297 0.56,-0.272C0.572,-0.247 0.578,-0.221 0.578,-0.194C0.578,-0.156 0.568,-0.123 0.55,-0.094C0.531,-0.065 0.503,-0.042 0.467,-0.025C0.431,-0.008 0.388,-0 0.338,-0C0.323,-0 0.301,-0.001 0.272,-0.002C0.243,-0.003 0.207,-0.003 0.166,-0.003C0.143,-0.003 0.12,-0.003 0.097,-0.003C0.074,-0.002 0.056,-0.001 0.042,-0L0.042,-0.02C0.065,-0.021 0.082,-0.024 0.094,-0.028C0.105,-0.032 0.113,-0.04 0.117,-0.052C0.121,-0.064 0.123,-0.082 0.123,-0.106L0.123,-0.602C0.123,-0.627 0.121,-0.645 0.117,-0.657C0.113,-0.668 0.105,-0.676 0.094,-0.681C0.082,-0.685 0.065,-0.687 0.042,-0.688L0.042,-0.708ZM0.29,-0.688C0.259,-0.688 0.239,-0.682 0.23,-0.671C0.221,-0.66 0.216,-0.637 0.216,-0.602L0.216,-0.106C0.216,-0.083 0.218,-0.065 0.222,-0.053C0.226,-0.041 0.233,-0.033 0.244,-0.029C0.255,-0.025 0.27,-0.023 0.291,-0.023C0.356,-0.023 0.404,-0.038 0.434,-0.069C0.463,-0.099 0.478,-0.142 0.478,-0.198C0.478,-0.249 0.464,-0.289 0.437,-0.317C0.409,-0.345 0.363,-0.359 0.3,-0.359L0.197,-0.359L0.197,-0.376L0.283,-0.376C0.322,-0.376 0.353,-0.384 0.374,-0.399C0.395,-0.413 0.41,-0.434 0.418,-0.459C0.426,-0.484 0.43,-0.51 0.43,-0.539C0.43,-0.588 0.419,-0.626 0.398,-0.651C0.376,-0.676 0.34,-0.688 0.29,-0.688Z" style="fill:white;fill-rule:nonzero;"/>
            </g>
            <g transform="matrix(114.4,0,0,33.4545,182.271,160.228)">
                <path d="M0.272,-0.529C0.331,-0.529 0.377,-0.511 0.41,-0.476C0.443,-0.44 0.459,-0.384 0.459,-0.309L0.106,-0.309L0.105,-0.328L0.363,-0.328C0.364,-0.361 0.362,-0.391 0.355,-0.419C0.348,-0.446 0.338,-0.468 0.324,-0.485C0.309,-0.502 0.291,-0.51 0.268,-0.51C0.237,-0.51 0.21,-0.495 0.187,-0.464C0.163,-0.433 0.149,-0.385 0.144,-0.318L0.147,-0.314C0.146,-0.304 0.145,-0.293 0.144,-0.281C0.143,-0.269 0.143,-0.257 0.143,-0.245C0.143,-0.2 0.15,-0.161 0.165,-0.128C0.18,-0.095 0.199,-0.07 0.223,-0.054C0.246,-0.037 0.271,-0.028 0.296,-0.028C0.316,-0.028 0.335,-0.031 0.353,-0.038C0.371,-0.044 0.388,-0.054 0.403,-0.069C0.418,-0.084 0.432,-0.103 0.443,-0.128L0.463,-0.12C0.456,-0.098 0.444,-0.077 0.427,-0.056C0.41,-0.035 0.389,-0.019 0.364,-0.006C0.339,0.008 0.309,0.014 0.276,0.014C0.228,0.014 0.187,0.003 0.153,-0.019C0.118,-0.041 0.092,-0.072 0.074,-0.111C0.055,-0.15 0.046,-0.194 0.046,-0.245C0.046,-0.304 0.055,-0.354 0.074,-0.397C0.093,-0.439 0.119,-0.472 0.153,-0.495C0.187,-0.518 0.227,-0.529 0.272,-0.529Z" style="fill:white;fill-rule:nonzero;"/>
            </g>
            <g transform="matrix(114.4,0,0,33.4545,240.158,160.228)">
                <path d="M0.171,0.007C0.144,0.007 0.12,0.002 0.1,-0.009C0.08,-0.019 0.065,-0.033 0.055,-0.052C0.044,-0.071 0.039,-0.092 0.039,-0.117C0.039,-0.146 0.046,-0.17 0.06,-0.189C0.073,-0.208 0.091,-0.223 0.112,-0.234C0.133,-0.245 0.156,-0.255 0.18,-0.263C0.203,-0.27 0.226,-0.278 0.247,-0.285C0.268,-0.292 0.286,-0.3 0.3,-0.309C0.313,-0.318 0.32,-0.331 0.32,-0.346L0.32,-0.408C0.32,-0.436 0.316,-0.457 0.308,-0.472C0.299,-0.487 0.288,-0.497 0.274,-0.502C0.26,-0.507 0.244,-0.509 0.227,-0.509C0.21,-0.509 0.193,-0.507 0.174,-0.502C0.155,-0.497 0.139,-0.488 0.128,-0.473C0.141,-0.47 0.152,-0.464 0.161,-0.453C0.17,-0.442 0.175,-0.429 0.175,-0.412C0.175,-0.395 0.17,-0.382 0.159,-0.373C0.148,-0.363 0.135,-0.358 0.118,-0.358C0.099,-0.358 0.085,-0.364 0.076,-0.377C0.067,-0.389 0.062,-0.403 0.062,-0.418C0.062,-0.435 0.066,-0.449 0.075,-0.46C0.084,-0.471 0.095,-0.481 0.108,-0.49C0.123,-0.501 0.143,-0.51 0.168,-0.518C0.192,-0.525 0.219,-0.529 0.25,-0.529C0.277,-0.529 0.301,-0.526 0.32,-0.52C0.339,-0.513 0.355,-0.504 0.368,-0.492C0.385,-0.476 0.397,-0.456 0.402,-0.434C0.407,-0.411 0.41,-0.383 0.41,-0.351L0.41,-0.073C0.41,-0.056 0.413,-0.044 0.418,-0.037C0.423,-0.03 0.43,-0.026 0.441,-0.026C0.448,-0.026 0.455,-0.028 0.462,-0.031C0.469,-0.034 0.477,-0.04 0.486,-0.047L0.497,-0.03C0.483,-0.019 0.47,-0.011 0.457,-0.004C0.444,0.004 0.427,0.007 0.406,0.007C0.387,0.007 0.371,0.004 0.358,-0.003C0.345,-0.01 0.336,-0.02 0.33,-0.033C0.323,-0.046 0.32,-0.062 0.32,-0.082C0.302,-0.052 0.28,-0.03 0.256,-0.015C0.231,-0 0.202,0.007 0.171,0.007ZM0.207,-0.033C0.229,-0.033 0.249,-0.039 0.269,-0.052C0.288,-0.065 0.305,-0.084 0.32,-0.109L0.32,-0.305C0.312,-0.294 0.3,-0.284 0.285,-0.277C0.27,-0.269 0.253,-0.261 0.235,-0.254C0.217,-0.246 0.2,-0.237 0.184,-0.227C0.167,-0.216 0.154,-0.203 0.143,-0.186C0.132,-0.169 0.127,-0.148 0.127,-0.121C0.127,-0.094 0.134,-0.073 0.149,-0.057C0.163,-0.041 0.182,-0.033 0.207,-0.033Z" style="fill:white;fill-rule:nonzero;"/>
            </g>
            <g transform="matrix(114.4,0,0,33.4545,297.129,160.228)">
                <path d="M0.365,-0.529C0.39,-0.529 0.412,-0.526 0.429,-0.519C0.446,-0.512 0.46,-0.503 0.471,-0.491C0.484,-0.478 0.493,-0.461 0.498,-0.441C0.503,-0.421 0.506,-0.394 0.506,-0.36L0.506,-0.093C0.506,-0.065 0.512,-0.046 0.524,-0.036C0.535,-0.026 0.555,-0.021 0.582,-0.021L0.582,-0C0.571,-0.001 0.553,-0.002 0.53,-0.003C0.507,-0.004 0.484,-0.004 0.462,-0.004C0.44,-0.004 0.419,-0.004 0.398,-0.003C0.377,-0.002 0.361,-0.001 0.35,-0L0.35,-0.021C0.374,-0.021 0.391,-0.026 0.401,-0.036C0.411,-0.046 0.416,-0.065 0.416,-0.093L0.416,-0.382C0.416,-0.403 0.414,-0.422 0.411,-0.439C0.408,-0.456 0.4,-0.47 0.389,-0.481C0.377,-0.492 0.359,-0.497 0.335,-0.497C0.307,-0.497 0.282,-0.489 0.262,-0.473C0.241,-0.457 0.224,-0.435 0.213,-0.408C0.201,-0.38 0.195,-0.349 0.195,-0.315L0.195,-0.093C0.195,-0.065 0.2,-0.046 0.21,-0.036C0.22,-0.026 0.237,-0.021 0.261,-0.021L0.261,-0C0.25,-0.001 0.235,-0.002 0.214,-0.003C0.193,-0.004 0.171,-0.004 0.149,-0.004C0.127,-0.004 0.104,-0.004 0.081,-0.003C0.058,-0.002 0.04,-0.001 0.029,-0L0.029,-0.021C0.056,-0.021 0.076,-0.026 0.088,-0.036C0.099,-0.046 0.105,-0.065 0.105,-0.093L0.105,-0.406C0.105,-0.436 0.1,-0.458 0.089,-0.473C0.078,-0.487 0.058,-0.494 0.029,-0.494L0.029,-0.515C0.05,-0.513 0.071,-0.512 0.091,-0.512C0.11,-0.512 0.129,-0.513 0.147,-0.516C0.164,-0.518 0.18,-0.521 0.195,-0.526L0.195,-0.408C0.212,-0.453 0.237,-0.485 0.268,-0.503C0.299,-0.52 0.331,-0.529 0.365,-0.529Z" style="fill:white;fill-rule:nonzero;"/>
            </g>
            <g transform="matrix(114.4,0,0,33.4545,111,193.683)">
                <path d="M0.042,-0.708C0.056,-0.707 0.074,-0.707 0.097,-0.706C0.12,-0.705 0.142,-0.705 0.164,-0.705C0.195,-0.705 0.225,-0.705 0.254,-0.706C0.283,-0.707 0.303,-0.707 0.315,-0.707C0.385,-0.707 0.438,-0.692 0.473,-0.663C0.508,-0.634 0.526,-0.596 0.526,-0.55C0.526,-0.527 0.521,-0.504 0.512,-0.482C0.502,-0.459 0.486,-0.439 0.464,-0.421C0.441,-0.402 0.411,-0.387 0.374,-0.376L0.374,-0.374C0.427,-0.367 0.468,-0.355 0.498,-0.337C0.527,-0.318 0.548,-0.297 0.56,-0.272C0.572,-0.247 0.578,-0.221 0.578,-0.194C0.578,-0.156 0.568,-0.123 0.55,-0.094C0.531,-0.065 0.503,-0.042 0.467,-0.025C0.431,-0.008 0.388,-0 0.338,-0C0.323,-0 0.301,-0.001 0.272,-0.002C0.243,-0.003 0.207,-0.003 0.166,-0.003C0.143,-0.003 0.12,-0.003 0.097,-0.003C0.074,-0.002 0.056,-0.001 0.042,-0L0.042,-0.02C0.065,-0.021 0.082,-0.024 0.094,-0.028C0.105,-0.032 0.113,-0.04 0.117,-0.052C0.121,-0.064 0.123,-0.082 0.123,-0.106L0.123,-0.602C0.123,-0.627 0.121,-0.645 0.117,-0.657C0.113,-0.668 0.105,-0.676 0.094,-0.681C0.082,-0.685 0.065,-0.687 0.042,-0.688L0.042,-0.708ZM0.29,-0.688C0.259,-0.688 0.239,-0.682 0.23,-0.671C0.221,-0.66 0.216,-0.637 0.216,-0.602L0.216,-0.106C0.216,-0.083 0.218,-0.065 0.222,-0.053C0.226,-0.041 0.233,-0.033 0.244,-0.029C0.255,-0.025 0.27,-0.023 0.291,-0.023C0.356,-0.023 0.404,-0.038 0.434,-0.069C0.463,-0.099 0.478,-0.142 0.478,-0.198C0.478,-0.249 0.464,-0.289 0.437,-0.317C0.409,-0.345 0.363,-0.359 0.3,-0.359L0.197,-0.359L0.197,-0.376L0.283,-0.376C0.322,-0.376 0.353,-0.384 0.374,-0.399C0.395,-0.413 0.41,-0.434 0.418,-0.459C0.426,-0.484 0.43,-0.51 0.43,-0.539C0.43,-0.588 0.419,-0.626 0.398,-0.651C0.376,-0.676 0.34,-0.688 0.29,-0.688Z" style="fill:white;fill-rule:nonzero;"/>
            </g>
            <g transform="matrix(114.4,0,0,33.4545,181.699,193.683)">
                <path d="M0.34,-0.529C0.358,-0.529 0.374,-0.525 0.388,-0.518C0.401,-0.511 0.412,-0.501 0.42,-0.49C0.427,-0.478 0.431,-0.465 0.431,-0.45C0.431,-0.433 0.426,-0.419 0.416,-0.406C0.405,-0.393 0.391,-0.387 0.374,-0.387C0.36,-0.387 0.348,-0.392 0.337,-0.401C0.326,-0.41 0.321,-0.422 0.321,-0.439C0.321,-0.452 0.325,-0.463 0.332,-0.472C0.339,-0.481 0.346,-0.488 0.355,-0.493C0.35,-0.5 0.343,-0.503 0.334,-0.503C0.313,-0.503 0.294,-0.497 0.277,-0.485C0.26,-0.472 0.245,-0.456 0.233,-0.437C0.221,-0.418 0.212,-0.397 0.205,-0.376C0.198,-0.354 0.195,-0.334 0.195,-0.315L0.195,-0.103C0.195,-0.07 0.205,-0.048 0.224,-0.038C0.243,-0.027 0.268,-0.021 0.301,-0.021L0.301,-0C0.286,-0.001 0.264,-0.002 0.236,-0.003C0.208,-0.004 0.178,-0.004 0.147,-0.004C0.124,-0.004 0.102,-0.004 0.08,-0.003C0.057,-0.002 0.04,-0.001 0.029,-0L0.029,-0.021C0.056,-0.021 0.076,-0.026 0.088,-0.036C0.099,-0.046 0.105,-0.065 0.105,-0.093L0.105,-0.406C0.105,-0.436 0.1,-0.458 0.089,-0.473C0.078,-0.487 0.058,-0.494 0.029,-0.494L0.029,-0.515C0.05,-0.513 0.071,-0.512 0.091,-0.512C0.11,-0.512 0.129,-0.513 0.147,-0.516C0.164,-0.518 0.18,-0.521 0.195,-0.526L0.195,-0.401C0.202,-0.42 0.213,-0.44 0.227,-0.46C0.24,-0.479 0.257,-0.496 0.276,-0.509C0.295,-0.522 0.317,-0.529 0.34,-0.529Z" style="fill:white;fill-rule:nonzero;"/>
            </g>
            <g transform="matrix(114.4,0,0,33.4545,230.319,193.683)">
                <path d="M0.272,-0.529C0.331,-0.529 0.377,-0.511 0.41,-0.476C0.443,-0.44 0.459,-0.384 0.459,-0.309L0.106,-0.309L0.105,-0.328L0.363,-0.328C0.364,-0.361 0.362,-0.391 0.355,-0.419C0.348,-0.446 0.338,-0.468 0.324,-0.485C0.309,-0.502 0.291,-0.51 0.268,-0.51C0.237,-0.51 0.21,-0.495 0.187,-0.464C0.163,-0.433 0.149,-0.385 0.144,-0.318L0.147,-0.314C0.146,-0.304 0.145,-0.293 0.144,-0.281C0.143,-0.269 0.143,-0.257 0.143,-0.245C0.143,-0.2 0.15,-0.161 0.165,-0.128C0.18,-0.095 0.199,-0.07 0.223,-0.054C0.246,-0.037 0.271,-0.028 0.296,-0.028C0.316,-0.028 0.335,-0.031 0.353,-0.038C0.371,-0.044 0.388,-0.054 0.403,-0.069C0.418,-0.084 0.432,-0.103 0.443,-0.128L0.463,-0.12C0.456,-0.098 0.444,-0.077 0.427,-0.056C0.41,-0.035 0.389,-0.019 0.364,-0.006C0.339,0.008 0.309,0.014 0.276,0.014C0.228,0.014 0.187,0.003 0.153,-0.019C0.118,-0.041 0.092,-0.072 0.074,-0.111C0.055,-0.15 0.046,-0.194 0.046,-0.245C0.046,-0.304 0.055,-0.354 0.074,-0.397C0.093,-0.439 0.119,-0.472 0.153,-0.495C0.187,-0.518 0.227,-0.529 0.272,-0.529Z" style="fill:white;fill-rule:nonzero;"/>
            </g>
            <g transform="matrix(114.4,0,0,33.4545,287.748,193.683)">
                <path d="M0.218,-0.515L0.218,-0.494C0.201,-0.494 0.187,-0.493 0.174,-0.491C0.161,-0.488 0.153,-0.481 0.149,-0.47C0.145,-0.459 0.148,-0.439 0.158,-0.41L0.262,-0.112L0.255,-0.113L0.402,-0.519L0.422,-0.511L0.239,0.005L0.222,0.005L0.058,-0.438C0.047,-0.465 0.037,-0.481 0.027,-0.486C0.016,-0.491 0.007,-0.494 0,-0.494L0,-0.515C0.013,-0.513 0.027,-0.511 0.042,-0.511C0.056,-0.51 0.071,-0.509 0.088,-0.509C0.109,-0.509 0.131,-0.51 0.154,-0.511C0.177,-0.512 0.198,-0.514 0.218,-0.515ZM0.767,-0.515L0.767,-0.495C0.754,-0.494 0.743,-0.488 0.732,-0.479C0.721,-0.469 0.711,-0.451 0.702,-0.425L0.557,0.005L0.54,0.005L0.379,-0.404L0.402,-0.519L0.425,-0.519L0.581,-0.106L0.573,-0.1L0.672,-0.401C0.679,-0.424 0.682,-0.442 0.681,-0.455C0.679,-0.468 0.672,-0.477 0.661,-0.484C0.649,-0.49 0.631,-0.494 0.607,-0.495L0.607,-0.515C0.619,-0.514 0.629,-0.514 0.638,-0.514C0.647,-0.513 0.655,-0.513 0.664,-0.513C0.672,-0.512 0.681,-0.512 0.691,-0.512C0.706,-0.512 0.72,-0.512 0.733,-0.513C0.745,-0.514 0.756,-0.514 0.767,-0.515Z" style="fill:white;fill-rule:nonzero;"/>
            </g>
        </g>
        <g transform="matrix(77.002,0,0,77.002,226.137,200.902)">
            <path d="M0.307,-0.702C0.332,-0.702 0.353,-0.699 0.37,-0.694C0.387,-0.688 0.4,-0.681 0.411,-0.672C0.42,-0.665 0.427,-0.658 0.432,-0.65C0.437,-0.642 0.441,-0.634 0.444,-0.626C0.447,-0.618 0.448,-0.61 0.448,-0.603C0.448,-0.586 0.442,-0.573 0.431,-0.564C0.419,-0.555 0.406,-0.55 0.392,-0.55C0.379,-0.55 0.367,-0.554 0.356,-0.563C0.345,-0.572 0.34,-0.584 0.34,-0.6C0.34,-0.615 0.345,-0.627 0.355,-0.638C0.365,-0.648 0.378,-0.654 0.393,-0.655C0.39,-0.664 0.382,-0.671 0.369,-0.678C0.355,-0.684 0.338,-0.687 0.317,-0.687C0.283,-0.687 0.255,-0.677 0.234,-0.657C0.212,-0.636 0.201,-0.607 0.201,-0.568C0.201,-0.549 0.205,-0.53 0.212,-0.511C0.219,-0.492 0.232,-0.473 0.252,-0.454C0.263,-0.456 0.275,-0.458 0.287,-0.459C0.299,-0.46 0.308,-0.46 0.314,-0.46C0.326,-0.46 0.336,-0.458 0.343,-0.454C0.35,-0.45 0.354,-0.444 0.354,-0.437C0.354,-0.431 0.352,-0.426 0.347,-0.423C0.342,-0.42 0.335,-0.418 0.326,-0.418C0.313,-0.418 0.3,-0.421 0.286,-0.427C0.272,-0.432 0.261,-0.437 0.253,-0.44C0.214,-0.429 0.183,-0.41 0.159,-0.385C0.135,-0.359 0.123,-0.323 0.123,-0.276C0.123,-0.23 0.135,-0.191 0.159,-0.159C0.183,-0.127 0.215,-0.102 0.256,-0.086C0.296,-0.069 0.341,-0.06 0.391,-0.06C0.426,-0.06 0.46,-0.064 0.492,-0.073C0.523,-0.081 0.551,-0.093 0.576,-0.109C0.6,-0.125 0.619,-0.144 0.633,-0.167C0.647,-0.189 0.654,-0.214 0.654,-0.243C0.654,-0.256 0.651,-0.272 0.646,-0.292C0.641,-0.311 0.63,-0.331 0.613,-0.35C0.596,-0.369 0.571,-0.383 0.536,-0.394L0.548,-0.404C0.597,-0.389 0.631,-0.366 0.652,-0.334C0.673,-0.301 0.683,-0.265 0.683,-0.225C0.683,-0.185 0.671,-0.147 0.647,-0.11C0.623,-0.073 0.588,-0.044 0.543,-0.021C0.498,0.003 0.443,0.014 0.378,0.014C0.335,0.014 0.294,0.008 0.255,-0.003C0.216,-0.014 0.181,-0.031 0.151,-0.053C0.121,-0.074 0.097,-0.1 0.08,-0.131C0.063,-0.162 0.054,-0.196 0.054,-0.235C0.054,-0.271 0.061,-0.302 0.075,-0.328C0.089,-0.353 0.106,-0.374 0.127,-0.391C0.148,-0.408 0.168,-0.421 0.189,-0.43C0.21,-0.439 0.226,-0.445 0.239,-0.448C0.217,-0.458 0.199,-0.47 0.184,-0.484C0.169,-0.497 0.157,-0.512 0.15,-0.529C0.142,-0.545 0.138,-0.561 0.138,-0.577C0.138,-0.593 0.142,-0.608 0.149,-0.624C0.156,-0.639 0.167,-0.652 0.181,-0.664C0.195,-0.676 0.213,-0.685 0.234,-0.692C0.255,-0.699 0.279,-0.702 0.307,-0.702ZM0.671,-0.722C0.712,-0.722 0.747,-0.71 0.775,-0.687C0.803,-0.663 0.817,-0.63 0.817,-0.587C0.817,-0.564 0.813,-0.544 0.805,-0.527C0.796,-0.509 0.785,-0.493 0.771,-0.48C0.756,-0.467 0.74,-0.456 0.722,-0.447C0.707,-0.44 0.687,-0.432 0.662,-0.423C0.636,-0.414 0.61,-0.406 0.582,-0.397C0.553,-0.388 0.526,-0.38 0.501,-0.372C0.475,-0.363 0.454,-0.356 0.438,-0.35C0.413,-0.341 0.393,-0.329 0.376,-0.316C0.359,-0.302 0.35,-0.284 0.35,-0.263C0.35,-0.246 0.355,-0.231 0.365,-0.219C0.375,-0.207 0.387,-0.198 0.402,-0.192C0.416,-0.186 0.429,-0.183 0.442,-0.183C0.448,-0.183 0.456,-0.184 0.465,-0.186C0.474,-0.187 0.482,-0.19 0.489,-0.193C0.496,-0.196 0.501,-0.2 0.502,-0.205C0.491,-0.207 0.481,-0.212 0.471,-0.22C0.46,-0.227 0.455,-0.239 0.455,-0.256C0.455,-0.272 0.46,-0.285 0.471,-0.294C0.482,-0.303 0.495,-0.308 0.51,-0.308C0.526,-0.308 0.539,-0.303 0.549,-0.293C0.558,-0.283 0.563,-0.27 0.563,-0.254C0.563,-0.235 0.557,-0.22 0.545,-0.207C0.532,-0.194 0.517,-0.184 0.499,-0.178C0.48,-0.171 0.462,-0.168 0.444,-0.168C0.425,-0.168 0.406,-0.172 0.387,-0.18C0.368,-0.188 0.352,-0.201 0.339,-0.218C0.326,-0.235 0.32,-0.257 0.32,-0.285C0.32,-0.308 0.325,-0.329 0.336,-0.347C0.346,-0.365 0.361,-0.381 0.382,-0.395C0.403,-0.409 0.428,-0.421 0.458,-0.431C0.478,-0.438 0.502,-0.445 0.531,-0.453C0.56,-0.461 0.589,-0.47 0.62,-0.479C0.65,-0.488 0.677,-0.499 0.702,-0.51C0.735,-0.525 0.758,-0.541 0.77,-0.557C0.782,-0.573 0.788,-0.589 0.788,-0.606C0.788,-0.625 0.783,-0.643 0.772,-0.658C0.761,-0.673 0.747,-0.685 0.73,-0.694C0.712,-0.703 0.693,-0.707 0.672,-0.707C0.664,-0.707 0.657,-0.706 0.652,-0.705C0.647,-0.704 0.643,-0.701 0.642,-0.698C0.651,-0.693 0.658,-0.687 0.663,-0.678C0.668,-0.669 0.67,-0.661 0.67,-0.652C0.67,-0.638 0.665,-0.626 0.654,-0.617C0.643,-0.608 0.629,-0.603 0.614,-0.603C0.601,-0.603 0.589,-0.607 0.578,-0.616C0.567,-0.624 0.561,-0.636 0.561,-0.653C0.561,-0.67 0.567,-0.684 0.579,-0.694C0.59,-0.704 0.604,-0.711 0.622,-0.716C0.639,-0.72 0.655,-0.722 0.671,-0.722Z" style="fill:white;fill-rule:nonzero;"/>
        </g>
    </g>
</svg>
